

<svg width="668pt" height="518pt"
 viewBox="0.00 0.00 667.70 517.64" xmlns="http://www.w3.org/2000/svg" xmlns:xlink="http://www.w3.org/1999/xlink">
<g id="graph0" class="graph" transform="scale(1 1) rotate(0) translate(4 513.6367)">
<title>search</title>
<polygon fill="#ffffff" stroke="transparent" points="-4,4 -4,-513.6367 663.7006,-513.6367 663.7006,4 -4,4"/>

<g id="database__el" class="node">
<title>database</title>
<ellipse fill="none" stroke="#000000" cx="267.865" cy="-464.3818" rx="132.8722" ry="45.011"/>
<text text-anchor="start" x="240.865" y="-482.1818" font-family="Times,serif" font-weight="bold" font-size="14.00" fill="#000000">Database</text>
<text text-anchor="start" x="191.365" y="-468.1818" font-family="Times,serif" font-size="14.00" fill="#000000"> A data storage system with</text>
<text text-anchor="start" x="181.865" y="-454.1818" font-family="Times,serif" font-size="14.00" fill="#000000">efficient methods to access and</text>
<text text-anchor="start" x="214.865" y="-440.1818" font-family="Times,serif" font-size="14.00" fill="#000000">store data elements</text>
</g>

<g id="relational_database__el" class="node">
<title>relational_database</title>
<ellipse fill="none" stroke="#000000" cx="190.865" cy="-327.9727" rx="126.6443" ry="55.3091"/>
<text text-anchor="start" x="132.365" y="-352.7727" font-family="Times,serif" font-weight="bold" font-size="14.00" fill="#000000">Relational Database</text>
<text text-anchor="start" x="117.865" y="-338.7727" font-family="Times,serif" font-size="14.00" fill="#000000"> A database which stores a</text>
<text text-anchor="start" x="127.365" y="-324.7727" font-family="Times,serif" font-size="14.00" fill="#000000">collection of tables and</text>
<text text-anchor="start" x="109.365" y="-310.7727" font-family="Times,serif" font-size="14.00" fill="#000000">provides ablities to access the</text>
<text text-anchor="start" x="162.365" y="-296.7727" font-family="Times,serif" font-size="14.00" fill="#000000">table rows</text>
</g>

<g id="edge1" class="edge">
<title>database&#45;&gt;relational_database</title>
<path fill="none" stroke="#000000" d="M242.6523,-419.7164C237.4138,-410.436 231.8011,-400.4929 226.274,-390.7013"/>
<polygon fill="#000000" stroke="#000000" points="229.1989,-388.7629 221.2353,-381.775 223.1031,-392.2039 229.1989,-388.7629"/>
</g>

<g id="NoSQL__el" class="node">
<title>NoSQL</title>
<ellipse fill="none" stroke="#ff0000" cx="410.865" cy="-45.2548" rx="141.3428" ry="45.011"/>
<text text-anchor="start" x="359.865" y="-63.0548" font-family="Times,serif" font-weight="bold" font-size="14.00" fill="#000000">NoSQL Database</text>
<text text-anchor="start" x="327.865" y="-49.0548" font-family="Times,serif" font-size="14.00" fill="#000000"> Marketing term for databases</text>
<text text-anchor="start" x="318.865" y="-35.0548" font-family="Times,serif" font-size="14.00" fill="#000000">that have some system other than</text>
<text text-anchor="start" x="397.865" y="-21.0548" font-family="Times,serif" font-size="14.00" fill="#000000">SQL</text>
</g>

<g id="edge3" class="edge">
<title>database&#45;&gt;NoSQL</title>
<path fill="none" stroke="#000000" d="M305.4019,-420.7115C313.6627,-409.1361 321.5287,-396.2009 326.865,-383.127 370.435,-276.3806 327.3871,-235.5442 364.865,-126.5097 368.0661,-117.1966 372.3384,-107.7279 376.9932,-98.7018"/>
<polygon fill="#000000" stroke="#000000" points="380.1016,-100.3113 381.7499,-89.8455 373.9348,-96.9991 380.1016,-100.3113"/>
</g>

<g id="SQL__el" class="node">
<title>SQL</title>
<ellipse fill="none" stroke="#00ff00" cx="190.865" cy="-181.664" rx="115.0173" ry="45.011"/>
<text text-anchor="start" x="176.865" y="-199.464" font-family="Times,serif" font-weight="bold" font-size="14.00" fill="#000000">SQL</text>
<text text-anchor="start" x="117.365" y="-185.464" font-family="Times,serif" font-size="14.00" fill="#000000"> The standard language for</text>
<text text-anchor="start" x="127.365" y="-171.464" font-family="Times,serif" font-size="14.00" fill="#000000">manipulating relational</text>
<text text-anchor="start" x="164.865" y="-157.464" font-family="Times,serif" font-size="14.00" fill="#000000">databases</text>
</g>

<g id="edge2" class="edge">
<title>relational_database&#45;&gt;SQL</title>
<path fill="none" stroke="#000000" d="M190.865,-272.6596C190.865,-261.0182 190.865,-248.7349 190.865,-237.0894"/>
<polygon fill="#000000" stroke="#000000" points="194.3651,-237.0518 190.865,-227.0518 187.3651,-237.0519 194.3651,-237.0518"/>
</g>

<g id="sorting__el" class="node">
<title>sorting</title>
<ellipse fill="none" stroke="#000000" cx="125.865" cy="-45.2548" rx="125.7302" ry="45.011"/>
<text text-anchor="start" x="104.365" y="-63.0548" font-family="Times,serif" font-weight="bold" font-size="14.00" fill="#000000">Sorting</text>
<text text-anchor="start" x="50.365" y="-49.0548" font-family="Times,serif" font-size="14.00" fill="#000000"> reordering data so that it is</text>
<text text-anchor="start" x="44.865" y="-35.0548" font-family="Times,serif" font-size="14.00" fill="#000000">ascending or descending with</text>
<text text-anchor="start" x="71.365" y="-21.0548" font-family="Times,serif" font-size="14.00" fill="#000000">respect to some key</text>
</g>

<g id="edge8" class="edge">
<title>SQL&#45;&gt;sorting</title>
<path fill="none" stroke="#000000" d="M163.3946,-137.3759C157.263,-125.3494 150.9046,-112.1869 145.1688,-99.671"/>
<polygon fill="#000000" stroke="#000000" points="148.2229,-97.9295 140.9181,-90.2555 141.8429,-100.8099 148.2229,-97.9295"/>
</g>

<g id="edge4" class="edge">
<title>SQL&#45;&gt;NoSQL</title>
<path fill="none" stroke="#000000" d="M248.3121,-142.2088C273.8582,-125.9496 304.3164,-107.0222 331.942,-90.2288"/>
<polygon fill="#000000" stroke="#000000" points="334.0652,-93.0346 340.802,-84.8574 330.4362,-87.0487 334.0652,-93.0346"/>
</g>

<g id="edge9" class="edge">
<title>sorting&#45;&gt;SQL</title>
<path fill="none" stroke="#000000" d="M153.4593,-89.7861C159.5552,-101.7518 165.8694,-114.8274 171.5685,-127.2638"/>
<polygon fill="#000000" stroke="#000000" points="168.488,-128.9466 175.7929,-136.6205 174.8679,-126.0661 168.488,-128.9466"/>
</g>

<g id="edge5" class="edge">
<title>NoSQL&#45;&gt;SQL</title>
<path fill="none" stroke="#000000" d="M350.8847,-86.3208C324.6691,-102.9758 293.6669,-122.2106 265.9464,-139.0226"/>
<polygon fill="#000000" stroke="#000000" points="263.8175,-136.2198 257.0718,-144.3896 267.4399,-142.2096 263.8175,-136.2198"/>
</g>

<g id="data_consistency__el" class="node">
<title>data_consistency</title>
<ellipse fill="none" stroke="#000000" cx="516.865" cy="-327.9727" rx="128.8872" ry="55.3091"/>
<text text-anchor="start" x="466.365" y="-352.7727" font-family="Times,serif" font-weight="bold" font-size="14.00" fill="#000000">Data Consistency</text>
<text text-anchor="start" x="433.865" y="-338.7727" font-family="Times,serif" font-size="14.00" fill="#000000"> Inconsistent data is when you</text>
<text text-anchor="start" x="448.865" y="-324.7727" font-family="Times,serif" font-size="14.00" fill="#000000">querry the same key of a</text>
<text text-anchor="start" x="434.365" y="-310.7727" font-family="Times,serif" font-size="14.00" fill="#000000">database and get two different</text>
<text text-anchor="start" x="490.365" y="-296.7727" font-family="Times,serif" font-size="14.00" fill="#000000">responses</text>
</g>

<g id="eventual_consistency__el" class="node">
<title>eventual_consistency</title>
<ellipse fill="none" stroke="#000000" cx="516.865" cy="-181.664" rx="142.6713" ry="55.3091"/>
<text text-anchor="start" x="454.365" y="-206.464" font-family="Times,serif" font-weight="bold" font-size="14.00" fill="#000000">Eventual Consistency</text>
<text text-anchor="start" x="436.865" y="-192.464" font-family="Times,serif" font-size="14.00" fill="#000000"> If you let the database churn</text>
<text text-anchor="start" x="423.865" y="-178.464" font-family="Times,serif" font-size="14.00" fill="#000000">for long enough without changing</text>
<text text-anchor="start" x="430.365" y="-164.464" font-family="Times,serif" font-size="14.00" fill="#000000">the entry every querry will give</text>
<text text-anchor="start" x="466.865" y="-150.464" font-family="Times,serif" font-size="14.00" fill="#000000">the same response</text>
</g>

<g id="edge6" class="edge">
<title>data_consistency&#45;&gt;eventual_consistency</title>
<path fill="none" stroke="#000000" d="M516.865,-272.6596C516.865,-264.3752 516.865,-255.7657 516.865,-247.2924"/>
<polygon fill="#000000" stroke="#000000" points="520.3651,-247.0552 516.865,-237.0552 513.3651,-247.0553 520.3651,-247.0552"/>
</g>

<g id="edge7" class="edge">
<title>eventual_consistency&#45;&gt;NoSQL</title>
<path fill="none" stroke="#000000" d="M475.5791,-128.5341C467.5979,-118.2632 459.2437,-107.5123 451.2903,-97.2773"/>
<polygon fill="#000000" stroke="#000000" points="453.9123,-94.9474 445.0127,-89.1987 448.385,-99.2426 453.9123,-94.9474"/>
</g>
</g>
</svg>
