

<svg width="904pt" height="518pt"
 viewBox="0.00 0.00 903.99 517.64" xmlns="http://www.w3.org/2000/svg" xmlns:xlink="http://www.w3.org/1999/xlink">
<g id="graph0" class="graph" transform="scale(1 1) rotate(0) translate(4 513.6367)">
<title>search</title>
<polygon fill="#ffffff" stroke="transparent" points="-4,4 -4,-513.6367 899.9935,-513.6367 899.9935,4 -4,4"/>

<g id="database__el" class="node">
<title>database</title>
<ellipse fill="none" stroke="#000000" cx="132.9361" cy="-308.1737" rx="132.8722" ry="45.011"/>
<text text-anchor="start" x="105.9361" y="-325.9737" font-family="Times,serif" font-weight="bold" font-size="14.00" fill="#000000">Database</text>
<text text-anchor="start" x="56.4361" y="-311.9737" font-family="Times,serif" font-size="14.00" fill="#000000"> A data storage system with</text>
<text text-anchor="start" x="46.9361" y="-297.9737" font-family="Times,serif" font-size="14.00" fill="#000000">efficient methods to access and</text>
<text text-anchor="start" x="79.9361" y="-283.9737" font-family="Times,serif" font-size="14.00" fill="#000000">store data elements</text>
</g>

<g id="NoSQL__el" class="node">
<title>NoSQL</title>
<ellipse fill="none" stroke="#ff0000" cx="301.9361" cy="-171.7645" rx="141.3428" ry="45.011"/>
<text text-anchor="start" x="250.9361" y="-189.5645" font-family="Times,serif" font-weight="bold" font-size="14.00" fill="#000000">NoSQL Database</text>
<text text-anchor="start" x="218.9361" y="-175.5645" font-family="Times,serif" font-size="14.00" fill="#000000"> Marketing term for databases</text>
<text text-anchor="start" x="209.9361" y="-161.5645" font-family="Times,serif" font-size="14.00" fill="#000000">that have some system other than</text>
<text text-anchor="start" x="288.9361" y="-147.5645" font-family="Times,serif" font-size="14.00" fill="#000000">SQL</text>
</g>

<g id="edge1" class="edge">
<title>database&#45;&gt;NoSQL</title>
<path fill="none" stroke="#000000" d="M185.0206,-266.1334C203.0113,-251.6121 223.3126,-235.2258 241.8888,-220.232"/>
<polygon fill="#000000" stroke="#000000" points="244.1494,-222.9052 249.7326,-213.9008 239.7528,-217.4582 244.1494,-222.9052"/>
</g>

<g id="SQL__el" class="node">
<title>SQL</title>
<ellipse fill="none" stroke="#00ff00" cx="301.9361" cy="-45.2548" rx="115.0173" ry="45.011"/>
<text text-anchor="start" x="287.9361" y="-63.0548" font-family="Times,serif" font-weight="bold" font-size="14.00" fill="#000000">SQL</text>
<text text-anchor="start" x="228.4361" y="-49.0548" font-family="Times,serif" font-size="14.00" fill="#000000"> The standard language for</text>
<text text-anchor="start" x="238.4361" y="-35.0548" font-family="Times,serif" font-size="14.00" fill="#000000">manipulating relational</text>
<text text-anchor="start" x="275.9361" y="-21.0548" font-family="Times,serif" font-size="14.00" fill="#000000">databases</text>
</g>

<g id="edge2" class="edge">
<title>SQL&#45;&gt;NoSQL</title>
<path fill="none" stroke="#000000" d="M308.4418,-90.6792C308.6741,-98.9496 308.7407,-107.6627 308.6417,-116.1871"/>
<polygon fill="#000000" stroke="#000000" points="305.1373,-116.3817 308.4388,-126.4489 312.1359,-116.5201 305.1373,-116.3817"/>
</g>

<g id="edge3" class="edge">
<title>NoSQL&#45;&gt;SQL</title>
<path fill="none" stroke="#000000" d="M295.4334,-126.4489C295.1997,-118.1825 295.1316,-109.4704 295.2292,-100.9444"/>
<polygon fill="#000000" stroke="#000000" points="298.7336,-100.7459 295.4303,-90.6792 291.735,-100.6087 298.7336,-100.7459"/>
</g>

<g id="data_consistency__el" class="node">
<title>data_consistency</title>
<ellipse fill="none" stroke="#000000" cx="597.9361" cy="-454.4823" rx="128.8872" ry="55.3091"/>
<text text-anchor="start" x="547.4361" y="-479.2823" font-family="Times,serif" font-weight="bold" font-size="14.00" fill="#000000">Data Consistency</text>
<text text-anchor="start" x="514.9361" y="-465.2823" font-family="Times,serif" font-size="14.00" fill="#000000"> Inconsistent data is when you</text>
<text text-anchor="start" x="529.9361" y="-451.2823" font-family="Times,serif" font-size="14.00" fill="#000000">querry the same key of a</text>
<text text-anchor="start" x="515.4361" y="-437.2823" font-family="Times,serif" font-size="14.00" fill="#000000">database and get two different</text>
<text text-anchor="start" x="571.4361" y="-423.2823" font-family="Times,serif" font-size="14.00" fill="#000000">responses</text>
</g>

<g id="eventual_consistency__el" class="node">
<title>eventual_consistency</title>
<ellipse fill="none" stroke="#000000" cx="426.9361" cy="-308.1737" rx="142.6713" ry="55.3091"/>
<text text-anchor="start" x="364.4361" y="-332.9737" font-family="Times,serif" font-weight="bold" font-size="14.00" fill="#000000">Eventual Consistency</text>
<text text-anchor="start" x="346.9361" y="-318.9737" font-family="Times,serif" font-size="14.00" fill="#000000"> If you let the database churn</text>
<text text-anchor="start" x="333.9361" y="-304.9737" font-family="Times,serif" font-size="14.00" fill="#000000">for long enough without changing</text>
<text text-anchor="start" x="340.4361" y="-290.9737" font-family="Times,serif" font-size="14.00" fill="#000000">the entry every querry will give</text>
<text text-anchor="start" x="376.9361" y="-276.9737" font-family="Times,serif" font-size="14.00" fill="#000000">the same response</text>
</g>

<g id="edge4" class="edge">
<title>data_consistency&#45;&gt;eventual_consistency</title>
<path fill="none" stroke="#000000" d="M540.0433,-404.9489C525.1916,-392.2417 509.095,-378.4694 493.83,-365.4085"/>
<polygon fill="#000000" stroke="#000000" points="495.808,-362.4946 485.9342,-358.6528 491.2571,-367.8135 495.808,-362.4946"/>
</g>

<g id="read_your_write__el" class="node">
<title>read_your_write</title>
<ellipse fill="none" stroke="#000000" cx="597.9361" cy="-171.7645" rx="136.4432" ry="45.011"/>
<text text-anchor="start" x="509.4361" y="-189.5645" font-family="Times,serif" font-weight="bold" font-size="14.00" fill="#000000">Read&#45;Your&#45;Write Consistency</text>
<text text-anchor="start" x="543.4361" y="-175.5645" font-family="Times,serif" font-size="14.00" fill="#000000"> Once an element is</text>
<text text-anchor="start" x="511.9361" y="-161.5645" font-family="Times,serif" font-size="14.00" fill="#000000">updated,every querry afterward</text>
<text text-anchor="start" x="541.9361" y="-147.5645" font-family="Times,serif" font-size="14.00" fill="#000000">gives same response</text>
</g>

<g id="edge5" class="edge">
<title>data_consistency&#45;&gt;read_your_write</title>
<path fill="none" stroke="#000000" d="M597.9361,-399.3003C597.9361,-349.6423 597.9361,-277.0408 597.9361,-227.2803"/>
<polygon fill="#000000" stroke="#000000" points="601.4362,-227.025 597.9361,-217.0251 594.4362,-227.0251 601.4362,-227.025"/>
</g>

<g id="read_after_write__el" class="node">
<title>read_after_write</title>
<ellipse fill="none" stroke="#000000" cx="760.9361" cy="-308.1737" rx="135.1148" ry="45.011"/>
<text text-anchor="start" x="673.4361" y="-325.9737" font-family="Times,serif" font-weight="bold" font-size="14.00" fill="#000000">Read&#45;after&#45;Write Consistency</text>
<text text-anchor="start" x="674.9361" y="-311.9737" font-family="Times,serif" font-size="14.00" fill="#000000"> Once an element is created for</text>
<text text-anchor="start" x="688.9361" y="-297.9737" font-family="Times,serif" font-size="14.00" fill="#000000">the first time,every querry</text>
<text text-anchor="start" x="676.9361" y="-283.9737" font-family="Times,serif" font-size="14.00" fill="#000000">afterward gives same response</text>
</g>

<g id="edge6" class="edge">
<title>data_consistency&#45;&gt;read_after_write</title>
<path fill="none" stroke="#000000" d="M653.5755,-404.5404C670.5308,-389.3214 689.1519,-372.6071 706.0565,-357.4335"/>
<polygon fill="#000000" stroke="#000000" points="708.5866,-359.8657 713.6905,-350.5812 703.9108,-354.6564 708.5866,-359.8657"/>
</g>

<g id="edge8" class="edge">
<title>eventual_consistency&#45;&gt;NoSQL</title>
<path fill="none" stroke="#000000" d="M378.9653,-255.8244C369.008,-244.9583 358.5299,-233.5238 348.6196,-222.709"/>
<polygon fill="#000000" stroke="#000000" points="351.1993,-220.3435 341.8628,-215.3355 346.0384,-225.0728 351.1993,-220.3435"/>
</g>

<g id="edge7" class="edge">
<title>read_your_write&#45;&gt;SQL</title>
<path fill="none" stroke="#000000" d="M513.9061,-135.8503C474.9806,-119.2136 428.7446,-99.4525 389.4033,-82.6381"/>
<polygon fill="#000000" stroke="#000000" points="390.6526,-79.3658 380.0817,-78.6541 387.9015,-85.8026 390.6526,-79.3658"/>
</g>
</g>
</svg>
