

<svg width="560pt" height="644pt"
 viewBox="0.00 0.00 560.29 644.15" xmlns="http://www.w3.org/2000/svg" xmlns:xlink="http://www.w3.org/1999/xlink">
<g id="graph0" class="graph" transform="scale(1 1) rotate(0) translate(4 640.1463)">
<title>search</title>
<polygon fill="#ffffff" stroke="transparent" points="-4,4 -4,-640.1463 556.2864,-640.1463 556.2864,4 -4,4"/>

<g id="relational_database__el" class="node">
<title>relational_database</title>
<ellipse fill="none" stroke="#000000" cx="127.865" cy="-434.6833" rx="126.6443" ry="55.3091"/>
<text text-anchor="start" x="69.365" y="-459.4833" font-family="Times,serif" font-weight="bold" font-size="14.00" fill="#000000">Relational Database</text>
<text text-anchor="start" x="54.865" y="-445.4833" font-family="Times,serif" font-size="14.00" fill="#000000"> A database which stores a</text>
<text text-anchor="start" x="64.365" y="-431.4833" font-family="Times,serif" font-size="14.00" fill="#000000">collection of tables and</text>
<text text-anchor="start" x="46.365" y="-417.4833" font-family="Times,serif" font-size="14.00" fill="#000000">provides ablities to access the</text>
<text text-anchor="start" x="99.365" y="-403.4833" font-family="Times,serif" font-size="14.00" fill="#000000">table rows</text>
</g>

<g id="SQL__el" class="node">
<title>SQL</title>
<ellipse fill="none" stroke="#00ff00" cx="267.865" cy="-298.2742" rx="115.0173" ry="45.011"/>
<text text-anchor="start" x="253.865" y="-316.0742" font-family="Times,serif" font-weight="bold" font-size="14.00" fill="#000000">SQL</text>
<text text-anchor="start" x="194.365" y="-302.0742" font-family="Times,serif" font-size="14.00" fill="#000000"> The standard language for</text>
<text text-anchor="start" x="204.365" y="-288.0742" font-family="Times,serif" font-size="14.00" fill="#000000">manipulating relational</text>
<text text-anchor="start" x="241.865" y="-274.0742" font-family="Times,serif" font-size="14.00" fill="#000000">databases</text>
</g>

<g id="edge1" class="edge">
<title>relational_database&#45;&gt;SQL</title>
<path fill="none" stroke="#000000" d="M179.5981,-384.2772C191.8539,-372.3357 204.913,-359.6115 217.1242,-347.7135"/>
<polygon fill="#000000" stroke="#000000" points="219.8833,-349.9119 224.6031,-340.4265 214.9982,-344.8983 219.8833,-349.9119"/>
</g>

<g id="sorting__el" class="node">
<title>sorting</title>
<ellipse fill="none" stroke="#000000" cx="125.865" cy="-171.7645" rx="125.7302" ry="45.011"/>
<text text-anchor="start" x="104.365" y="-189.5645" font-family="Times,serif" font-weight="bold" font-size="14.00" fill="#000000">Sorting</text>
<text text-anchor="start" x="50.365" y="-175.5645" font-family="Times,serif" font-size="14.00" fill="#000000"> reordering data so that it is</text>
<text text-anchor="start" x="44.865" y="-161.5645" font-family="Times,serif" font-size="14.00" fill="#000000">ascending or descending with</text>
<text text-anchor="start" x="71.365" y="-147.5645" font-family="Times,serif" font-size="14.00" fill="#000000">respect to some key</text>
</g>

<g id="edge7" class="edge">
<title>SQL&#45;&gt;sorting</title>
<path fill="none" stroke="#000000" d="M215.7996,-257.5493C202.5024,-246.0769 188.2627,-233.467 175.1117,-221.5294"/>
<polygon fill="#000000" stroke="#000000" points="177.2556,-218.7476 167.5097,-214.5921 172.5371,-223.9183 177.2556,-218.7476"/>
</g>

<g id="NoSQL__el" class="node">
<title>NoSQL</title>
<ellipse fill="none" stroke="#ff0000" cx="410.865" cy="-171.7645" rx="141.3428" ry="45.011"/>
<text text-anchor="start" x="359.865" y="-189.5645" font-family="Times,serif" font-weight="bold" font-size="14.00" fill="#000000">NoSQL Database</text>
<text text-anchor="start" x="327.865" y="-175.5645" font-family="Times,serif" font-size="14.00" fill="#000000"> Marketing term for databases</text>
<text text-anchor="start" x="318.865" y="-161.5645" font-family="Times,serif" font-size="14.00" fill="#000000">that have some system other than</text>
<text text-anchor="start" x="397.865" y="-147.5645" font-family="Times,serif" font-size="14.00" fill="#000000">SQL</text>
</g>

<g id="edge3" class="edge">
<title>SQL&#45;&gt;NoSQL</title>
<path fill="none" stroke="#000000" d="M309.4644,-255.7963C321.9056,-244.4554 335.8002,-232.112 349.2282,-220.4647"/>
<polygon fill="#000000" stroke="#000000" points="351.7824,-222.8836 357.066,-213.7003 347.2087,-217.5843 351.7824,-222.8836"/>
</g>

<g id="edge8" class="edge">
<title>sorting&#45;&gt;SQL</title>
<path fill="none" stroke="#000000" d="M178.5883,-213.0572C191.8445,-224.5049 206.0001,-237.0484 219.0563,-248.9069"/>
<polygon fill="#000000" stroke="#000000" points="216.8567,-251.638 226.6014,-255.7963 221.5768,-246.4688 216.8567,-251.638"/>
</g>

<g id="mergesort__el" class="node">
<title>mergesort</title>
<ellipse fill="none" stroke="#0000ff" cx="125.865" cy="-45.2548" rx="122.1592" ry="45.011"/>
<text text-anchor="start" x="92.365" y="-63.0548" font-family="Times,serif" font-weight="bold" font-size="14.00" fill="#000000">Merge Sort</text>
<text text-anchor="start" x="49.865" y="-49.0548" font-family="Times,serif" font-size="14.00" fill="#000000"> recursive sorting algorithm</text>
<text text-anchor="start" x="47.365" y="-35.0548" font-family="Times,serif" font-size="14.00" fill="#000000">based of merging two sorted</text>
<text text-anchor="start" x="90.865" y="-21.0548" font-family="Times,serif" font-size="14.00" fill="#000000">lists into one</text>
</g>

<g id="edge2" class="edge">
<title>sorting&#45;&gt;mergesort</title>
<path fill="none" stroke="#000000" d="M125.865,-126.4489C125.865,-118.1825 125.865,-109.4704 125.865,-100.9444"/>
<polygon fill="#000000" stroke="#000000" points="129.3651,-100.6792 125.865,-90.6792 122.3651,-100.6792 129.3651,-100.6792"/>
</g>

<g id="edge4" class="edge">
<title>NoSQL&#45;&gt;SQL</title>
<path fill="none" stroke="#000000" d="M368.3999,-215.031C355.7598,-226.5381 341.6809,-239.0289 328.1446,-250.7502"/>
<polygon fill="#000000" stroke="#000000" points="325.5442,-248.3707 320.2523,-257.5493 330.113,-253.6741 325.5442,-248.3707"/>
</g>

<g id="data_consistency__el" class="node">
<title>data_consistency</title>
<ellipse fill="none" stroke="#000000" cx="408.865" cy="-580.992" rx="128.8872" ry="55.3091"/>
<text text-anchor="start" x="358.365" y="-605.792" font-family="Times,serif" font-weight="bold" font-size="14.00" fill="#000000">Data Consistency</text>
<text text-anchor="start" x="325.865" y="-591.792" font-family="Times,serif" font-size="14.00" fill="#000000"> Inconsistent data is when you</text>
<text text-anchor="start" x="340.865" y="-577.792" font-family="Times,serif" font-size="14.00" fill="#000000">querry the same key of a</text>
<text text-anchor="start" x="326.365" y="-563.792" font-family="Times,serif" font-size="14.00" fill="#000000">database and get two different</text>
<text text-anchor="start" x="382.365" y="-549.792" font-family="Times,serif" font-size="14.00" fill="#000000">responses</text>
</g>

<g id="read_your_write__el" class="node">
<title>read_your_write</title>
<ellipse fill="none" stroke="#000000" cx="408.865" cy="-434.6833" rx="136.4432" ry="45.011"/>
<text text-anchor="start" x="320.365" y="-452.4833" font-family="Times,serif" font-weight="bold" font-size="14.00" fill="#000000">Read&#45;Your&#45;Write Consistency</text>
<text text-anchor="start" x="354.365" y="-438.4833" font-family="Times,serif" font-size="14.00" fill="#000000"> Once an element is</text>
<text text-anchor="start" x="322.865" y="-424.4833" font-family="Times,serif" font-size="14.00" fill="#000000">updated,every querry afterward</text>
<text text-anchor="start" x="352.865" y="-410.4833" font-family="Times,serif" font-size="14.00" fill="#000000">gives same response</text>
</g>

<g id="edge5" class="edge">
<title>data_consistency&#45;&gt;read_your_write</title>
<path fill="none" stroke="#000000" d="M408.865,-525.679C408.865,-514.0376 408.865,-501.7542 408.865,-490.1087"/>
<polygon fill="#000000" stroke="#000000" points="412.3651,-490.0711 408.865,-480.0712 405.3651,-490.0712 412.3651,-490.0711"/>
</g>

<g id="edge6" class="edge">
<title>read_your_write&#45;&gt;SQL</title>
<path fill="none" stroke="#000000" d="M364.2517,-391.5226C349.6914,-377.4363 333.4202,-361.695 318.4534,-347.2154"/>
<polygon fill="#000000" stroke="#000000" points="320.8447,-344.6591 311.224,-340.2214 315.9775,-349.6901 320.8447,-344.6591"/>
</g>
</g>
</svg>
